# Blender v2.91.0 OBJ File: ''
# www.blender.org
mtllib ax_3.mtl
o Cylinder
v 0.020000 0.600000 -0.000000
v 0.020000 -0.600000 -0.000000
v 0.019616 0.600000 -0.003902
v 0.019616 -0.600000 -0.003902
v 0.018478 0.600000 -0.007654
v 0.018478 -0.600000 -0.007654
v 0.016629 0.600000 -0.011111
v 0.016629 -0.600000 -0.011111
v 0.014142 0.600000 -0.014142
v 0.014142 -0.600000 -0.014142
v 0.011111 0.600000 -0.016629
v 0.011111 -0.600000 -0.016629
v 0.007654 0.600000 -0.018478
v 0.007654 -0.600000 -0.018478
v 0.003902 0.600000 -0.019616
v 0.003902 -0.600000 -0.019616
v 0.000000 0.600000 -0.020000
v -0.000000 -0.600000 -0.020000
v -0.003902 0.600000 -0.019616
v -0.003902 -0.600000 -0.019616
v -0.007654 0.600000 -0.018478
v -0.007654 -0.600000 -0.018478
v -0.011111 0.600000 -0.016629
v -0.011111 -0.600000 -0.016629
v -0.014142 0.600000 -0.014142
v -0.014142 -0.600000 -0.014142
v -0.016629 0.600000 -0.011111
v -0.016629 -0.600000 -0.011111
v -0.018478 0.600000 -0.007654
v -0.018478 -0.600000 -0.007654
v -0.019616 0.600000 -0.003902
v -0.019616 -0.600000 -0.003902
v -0.020000 0.600000 0.000000
v -0.020000 -0.600000 0.000000
v -0.019616 0.600000 0.003902
v -0.019616 -0.600000 0.003902
v -0.018478 0.600000 0.007654
v -0.018478 -0.600000 0.007654
v -0.016629 0.600000 0.011111
v -0.016629 -0.600000 0.011111
v -0.014142 0.600000 0.014142
v -0.014142 -0.600000 0.014142
v -0.011111 0.600000 0.016629
v -0.011111 -0.600000 0.016629
v -0.007654 0.600000 0.018478
v -0.007654 -0.600000 0.018478
v -0.003902 0.600000 0.019616
v -0.003902 -0.600000 0.019616
v 0.000000 0.600000 0.020000
v -0.000000 -0.600000 0.020000
v 0.003902 0.600000 0.019616
v 0.003902 -0.600000 0.019616
v 0.007654 0.600000 0.018478
v 0.007654 -0.600000 0.018478
v 0.011111 0.600000 0.016629
v 0.011111 -0.600000 0.016629
v 0.014142 0.600000 0.014142
v 0.014142 -0.600000 0.014142
v 0.016629 0.600000 0.011111
v 0.016629 -0.600000 0.011111
v 0.018478 0.600000 0.007654
v 0.018478 -0.600000 0.007654
v 0.019616 0.600000 0.003902
v 0.019616 -0.600000 0.003902
vt 1.000000 1.000000
vt 0.968750 0.500000
vt 1.000000 0.500000
vt 0.968750 1.000000
vt 0.937500 0.500000
vt 0.937500 1.000000
vt 0.906250 0.500000
vt 0.906250 1.000000
vt 0.875000 0.500000
vt 0.875000 1.000000
vt 0.843750 0.500000
vt 0.843750 1.000000
vt 0.812500 0.500000
vt 0.812500 1.000000
vt 0.781250 0.500000
vt 0.781250 1.000000
vt 0.750000 0.500000
vt 0.750000 1.000000
vt 0.718750 0.500000
vt 0.718750 1.000000
vt 0.687500 0.500000
vt 0.687500 1.000000
vt 0.656250 0.500000
vt 0.656250 1.000000
vt 0.625000 0.500000
vt 0.625000 1.000000
vt 0.593750 0.500000
vt 0.593750 1.000000
vt 0.562500 0.500000
vt 0.562500 1.000000
vt 0.531250 0.500000
vt 0.531250 1.000000
vt 0.500000 0.500000
vt 0.500000 1.000000
vt 0.468750 0.500000
vt 0.468750 1.000000
vt 0.437500 0.500000
vt 0.437500 1.000000
vt 0.406250 0.500000
vt 0.406250 1.000000
vt 0.375000 0.500000
vt 0.375000 1.000000
vt 0.343750 0.500000
vt 0.343750 1.000000
vt 0.312500 0.500000
vt 0.312500 1.000000
vt 0.281250 0.500000
vt 0.281250 1.000000
vt 0.250000 0.500000
vt 0.250000 1.000000
vt 0.218750 0.500000
vt 0.218750 1.000000
vt 0.187500 0.500000
vt 0.187500 1.000000
vt 0.156250 0.500000
vt 0.156250 1.000000
vt 0.125000 0.500000
vt 0.125000 1.000000
vt 0.093750 0.500000
vt 0.093750 1.000000
vt 0.062500 0.500000
vt 0.028269 0.341844
vt 0.158156 0.028269
vt 0.471731 0.158156
vt 0.062500 1.000000
vt 0.031250 0.500000
vt 0.031250 1.000000
vt 0.000000 0.500000
vt 0.985388 0.296822
vt 0.796822 0.014612
vt 0.514611 0.203179
vt 0.341844 0.471731
vt 0.296822 0.485388
vt 0.250000 0.490000
vt 0.203179 0.485389
vt 0.158156 0.471731
vt 0.116663 0.449553
vt 0.080295 0.419706
vt 0.050447 0.383337
vt 0.014612 0.296822
vt 0.010000 0.250000
vt 0.014611 0.203179
vt 0.028269 0.158156
vt 0.050447 0.116663
vt 0.080294 0.080294
vt 0.116663 0.050447
vt 0.203178 0.014612
vt 0.250000 0.010000
vt 0.296822 0.014612
vt 0.341844 0.028269
vt 0.383337 0.050447
vt 0.419706 0.080294
vt 0.449553 0.116663
vt 0.485388 0.203178
vt 0.490000 0.250000
vt 0.485388 0.296822
vt 0.471731 0.341844
vt 0.449553 0.383337
vt 0.419706 0.419706
vt 0.383337 0.449553
vt 0.000000 1.000000
vt 0.703179 0.485389
vt 0.750000 0.490000
vt 0.796822 0.485388
vt 0.841844 0.471731
vt 0.883337 0.449553
vt 0.919706 0.419706
vt 0.949553 0.383337
vt 0.971731 0.341844
vt 0.990000 0.250000
vt 0.985388 0.203178
vt 0.971731 0.158156
vt 0.949553 0.116663
vt 0.919706 0.080294
vt 0.883337 0.050447
vt 0.841844 0.028269
vt 0.750000 0.010000
vt 0.703178 0.014612
vt 0.658156 0.028269
vt 0.616663 0.050447
vt 0.580294 0.080294
vt 0.550447 0.116663
vt 0.528269 0.158156
vt 0.510000 0.250000
vt 0.514612 0.296822
vt 0.528269 0.341844
vt 0.550447 0.383337
vt 0.580295 0.419706
vt 0.616663 0.449553
vt 0.658156 0.471731
vn 0.9952 -0.0000 -0.0980
vn 0.9569 -0.0000 -0.2903
vn 0.8819 -0.0000 -0.4714
vn 0.7730 -0.0000 -0.6344
vn 0.6344 -0.0000 -0.7730
vn 0.4714 -0.0000 -0.8819
vn 0.2903 -0.0000 -0.9569
vn 0.0980 -0.0000 -0.9952
vn -0.0980 0.0000 -0.9952
vn -0.2903 0.0000 -0.9569
vn -0.4714 0.0000 -0.8819
vn -0.6344 0.0000 -0.7730
vn -0.7730 0.0000 -0.6344
vn -0.8819 0.0000 -0.4714
vn -0.9569 0.0000 -0.2903
vn -0.9952 0.0000 -0.0980
vn -0.9952 0.0000 0.0980
vn -0.9569 0.0000 0.2903
vn -0.8819 0.0000 0.4714
vn -0.7730 0.0000 0.6344
vn -0.6344 0.0000 0.7730
vn -0.4714 0.0000 0.8819
vn -0.2903 0.0000 0.9569
vn -0.0980 0.0000 0.9952
vn 0.0980 -0.0000 0.9952
vn 0.2903 -0.0000 0.9569
vn 0.4714 -0.0000 0.8819
vn 0.6344 -0.0000 0.7730
vn 0.7730 -0.0000 0.6344
vn 0.8819 -0.0000 0.4714
vn 0.0000 -1.0000 -0.0000
vn 0.9569 -0.0000 0.2903
vn 0.9952 -0.0000 0.0980
vn 0.0000 1.0000 -0.0000
vn 0.0000 -1.0000 -0.0001
vn 0.0000 -1.0000 -0.0003
vn 0.0000 -1.0000 0.0001
vn 0.0000 -1.0000 0.0002
vn 0.0000 1.0000 0.0001
vn 0.0000 1.0000 -0.0001
vn 0.0000 1.0000 -0.0002
usemtl None
s off
f 2/1/1 3/2/1 1/3/1
f 4/4/2 5/5/2 3/2/2
f 6/6/3 7/7/3 5/5/3
f 8/8/4 9/9/4 7/7/4
f 10/10/5 11/11/5 9/9/5
f 12/12/6 13/13/6 11/11/6
f 14/14/7 15/15/7 13/13/7
f 16/16/8 17/17/8 15/15/8
f 18/18/9 19/19/9 17/17/9
f 20/20/10 21/21/10 19/19/10
f 22/22/11 23/23/11 21/21/11
f 24/24/12 25/25/12 23/23/12
f 26/26/13 27/27/13 25/25/13
f 28/28/14 29/29/14 27/27/14
f 30/30/15 31/31/15 29/29/15
f 32/32/16 33/33/16 31/31/16
f 34/34/17 35/35/17 33/33/17
f 36/36/18 37/37/18 35/35/18
f 38/38/19 39/39/19 37/37/19
f 40/40/20 41/41/20 39/39/20
f 42/42/21 43/43/21 41/41/21
f 44/44/22 45/45/22 43/43/22
f 46/46/23 47/47/23 45/45/23
f 48/48/24 49/49/24 47/47/24
f 50/50/25 51/51/25 49/49/25
f 52/52/26 53/53/26 51/51/26
f 54/54/27 55/55/27 53/53/27
f 56/56/28 57/57/28 55/55/28
f 58/58/29 59/59/29 57/57/29
f 60/60/30 61/61/30 59/59/30
f 54/62/31 38/63/31 22/64/31
f 62/65/32 63/66/32 61/61/32
f 64/67/33 1/68/33 63/66/33
f 15/69/34 31/70/34 47/71/34
f 2/1/1 4/4/1 3/2/1
f 4/4/2 6/6/2 5/5/2
f 6/6/3 8/8/3 7/7/3
f 8/8/4 10/10/4 9/9/4
f 10/10/5 12/12/5 11/11/5
f 12/12/6 14/14/6 13/13/6
f 14/14/7 16/16/7 15/15/7
f 16/16/8 18/18/8 17/17/8
f 18/18/9 20/20/9 19/19/9
f 20/20/10 22/22/10 21/21/10
f 22/22/11 24/24/11 23/23/11
f 24/24/12 26/26/12 25/25/12
f 26/26/13 28/28/13 27/27/13
f 28/28/14 30/30/14 29/29/14
f 30/30/15 32/32/15 31/31/15
f 32/32/16 34/34/16 33/33/16
f 34/34/17 36/36/17 35/35/17
f 36/36/18 38/38/18 37/37/18
f 38/38/19 40/40/19 39/39/19
f 40/40/20 42/42/20 41/41/20
f 42/42/21 44/44/21 43/43/21
f 44/44/22 46/46/22 45/45/22
f 46/46/23 48/48/23 47/47/23
f 48/48/24 50/50/24 49/49/24
f 50/50/25 52/52/25 51/51/25
f 52/52/26 54/54/26 53/53/26
f 54/54/27 56/56/27 55/55/27
f 56/56/28 58/58/28 57/57/28
f 58/58/29 60/60/29 59/59/29
f 60/60/30 62/65/30 61/61/30
f 6/72/31 4/73/31 2/74/31
f 2/74/31 64/75/31 6/72/31
f 64/75/31 62/76/31 6/72/31
f 62/76/35 60/77/35 58/78/35
f 58/78/31 56/79/31 54/62/31
f 54/62/36 52/80/36 50/81/36
f 50/81/37 48/82/37 54/62/37
f 48/82/31 46/83/31 54/62/31
f 46/83/31 44/84/31 38/63/31
f 44/84/31 42/85/31 38/63/31
f 42/85/31 40/86/31 38/63/31
f 38/63/31 36/87/31 34/88/31
f 34/88/31 32/89/31 30/90/31
f 30/90/35 28/91/35 26/92/35
f 26/92/31 24/93/31 22/64/31
f 22/64/38 20/94/38 18/95/38
f 18/95/37 16/96/37 22/64/37
f 16/96/31 14/97/31 22/64/31
f 14/97/37 12/98/37 10/99/37
f 10/99/31 8/100/31 6/72/31
f 62/76/31 58/78/31 6/72/31
f 58/78/31 54/62/31 6/72/31
f 38/63/31 34/88/31 22/64/31
f 34/88/31 30/90/31 22/64/31
f 30/90/31 26/92/31 22/64/31
f 14/97/31 10/99/31 22/64/31
f 10/99/31 6/72/31 22/64/31
f 54/62/31 46/83/31 38/63/31
f 6/72/31 54/62/31 22/64/31
f 62/65/32 64/67/32 63/66/32
f 64/67/33 2/101/33 1/68/33
f 63/102/34 1/103/34 3/104/34
f 3/104/34 5/105/34 7/106/34
f 7/106/34 9/107/34 11/108/34
f 11/108/39 13/109/39 7/106/39
f 13/109/40 15/69/40 7/106/40
f 15/69/41 17/110/41 19/111/41
f 19/111/34 21/112/34 15/69/34
f 21/112/34 23/113/34 15/69/34
f 23/113/34 25/114/34 31/70/34
f 25/114/34 27/115/34 31/70/34
f 27/115/40 29/116/40 31/70/40
f 31/70/34 33/117/34 35/118/34
f 35/118/34 37/119/34 39/120/34
f 39/120/39 41/121/39 43/122/39
f 43/122/34 45/123/34 47/71/34
f 47/71/34 49/124/34 51/125/34
f 51/125/34 53/126/34 55/127/34
f 55/127/34 57/128/34 63/102/34
f 57/128/34 59/129/34 63/102/34
f 59/129/34 61/130/34 63/102/34
f 63/102/34 3/104/34 7/106/34
f 31/70/34 35/118/34 47/71/34
f 35/118/34 39/120/34 47/71/34
f 39/120/34 43/122/34 47/71/34
f 47/71/34 51/125/34 63/102/34
f 51/125/34 55/127/34 63/102/34
f 63/102/34 7/106/34 15/69/34
f 15/69/34 23/113/34 31/70/34
f 63/102/34 15/69/34 47/71/34
o Cone
v 0.000000 -0.550000 -0.050000
v -0.009755 -0.550000 -0.049039
v -0.019134 -0.550000 -0.046194
v -0.027779 -0.550000 -0.041573
v -0.035355 -0.550000 -0.035355
v -0.041573 -0.550000 -0.027779
v -0.046194 -0.550000 -0.019134
v -0.049039 -0.550000 -0.009755
v -0.050000 -0.550000 -0.000000
v -0.049039 -0.550000 0.009755
v -0.046194 -0.550000 0.019134
v -0.041573 -0.550000 0.027779
v -0.035355 -0.550000 0.035355
v -0.027779 -0.550000 0.041573
v -0.019134 -0.550000 0.046194
v -0.009755 -0.550000 0.049039
v 0.000000 -0.550000 0.050000
v 0.009755 -0.550000 0.049039
v 0.019134 -0.550000 0.046194
v 0.027779 -0.550000 0.041573
v 0.035355 -0.550000 0.035355
v 0.041573 -0.550000 0.027778
v 0.046194 -0.550000 0.019134
v 0.049039 -0.550000 0.009754
v 0.050000 -0.550000 -0.000000
v 0.049039 -0.550000 -0.009755
v 0.046194 -0.550000 -0.019134
v 0.041573 -0.550000 -0.027779
v 0.035355 -0.550000 -0.035355
v 0.027778 -0.550000 -0.041574
v 0.019134 -0.550000 -0.046194
v 0.009754 -0.550000 -0.049039
v 0.000000 -0.650000 0.000000
vt 0.250000 0.490000
vt 0.250000 0.250000
vt 0.296822 0.485388
vt 0.341844 0.471731
vt 0.383337 0.449553
vt 0.419706 0.419706
vt 0.449553 0.383337
vt 0.471731 0.341844
vt 0.485388 0.296822
vt 0.490000 0.250000
vt 0.485388 0.203178
vt 0.471731 0.158156
vt 0.449553 0.116663
vt 0.419706 0.080294
vt 0.383337 0.050447
vt 0.341844 0.028269
vt 0.296822 0.014612
vt 0.250000 0.010000
vt 0.203178 0.014612
vt 0.158156 0.028269
vt 0.116663 0.050447
vt 0.080294 0.080294
vt 0.050447 0.116663
vt 0.028269 0.158156
vt 0.014611 0.203179
vt 0.010000 0.250000
vt 0.014612 0.296822
vt 0.028269 0.341844
vt 0.050447 0.383337
vt 0.080295 0.419706
vt 0.116663 0.449553
vt 0.158156 0.471731
vt 0.985388 0.296822
vt 0.796822 0.014612
vt 0.514611 0.203179
vt 0.203179 0.485389
vt 0.703179 0.485389
vt 0.750000 0.490000
vt 0.796822 0.485388
vt 0.841844 0.471731
vt 0.883337 0.449553
vt 0.919706 0.419706
vt 0.949553 0.383337
vt 0.971731 0.341844
vt 0.990000 0.250000
vt 0.985388 0.203178
vt 0.971731 0.158156
vt 0.949553 0.116663
vt 0.919706 0.080294
vt 0.883337 0.050447
vt 0.841844 0.028269
vt 0.750000 0.010000
vt 0.703178 0.014612
vt 0.658156 0.028269
vt 0.616663 0.050447
vt 0.580294 0.080294
vt 0.550447 0.116663
vt 0.528269 0.158156
vt 0.510000 0.250000
vt 0.514612 0.296822
vt 0.528269 0.341844
vt 0.550447 0.383337
vt 0.580295 0.419706
vt 0.616663 0.449553
vt 0.658156 0.471731
vn -0.0878 -0.4455 -0.8910
vn -0.2599 -0.4455 -0.8567
vn -0.4220 -0.4455 -0.7896
vn -0.5680 -0.4455 -0.6921
vn -0.6921 -0.4455 -0.5680
vn -0.7896 -0.4455 -0.4220
vn -0.8567 -0.4455 -0.2599
vn -0.8910 -0.4455 -0.0878
vn -0.8910 -0.4455 0.0878
vn -0.8567 -0.4455 0.2599
vn -0.7896 -0.4455 0.4220
vn -0.6921 -0.4455 0.5680
vn -0.5680 -0.4455 0.6921
vn -0.4220 -0.4455 0.7896
vn -0.2599 -0.4455 0.8567
vn -0.0878 -0.4455 0.8910
vn 0.0878 -0.4455 0.8910
vn 0.2599 -0.4455 0.8567
vn 0.4220 -0.4455 0.7896
vn 0.5680 -0.4455 0.6921
vn 0.6921 -0.4455 0.5680
vn 0.7896 -0.4455 0.4220
vn 0.8567 -0.4455 0.2599
vn 0.8910 -0.4455 0.0878
vn 0.8910 -0.4455 -0.0878
vn 0.8567 -0.4455 -0.2599
vn 0.7896 -0.4455 -0.4220
vn 0.6921 -0.4455 -0.5680
vn 0.5680 -0.4455 -0.6921
vn 0.4220 -0.4455 -0.7896
vn 0.0000 1.0000 0.0000
vn 0.2599 -0.4455 -0.8567
vn 0.0878 -0.4455 -0.8910
vn 0.0000 1.0000 -0.0001
usemtl None
s off
f 65/131/42 97/132/42 66/133/42
f 66/133/43 97/132/43 67/134/43
f 67/134/44 97/132/44 68/135/44
f 68/135/45 97/132/45 69/136/45
f 69/136/46 97/132/46 70/137/46
f 70/137/47 97/132/47 71/138/47
f 71/138/48 97/132/48 72/139/48
f 72/139/49 97/132/49 73/140/49
f 73/140/50 97/132/50 74/141/50
f 74/141/51 97/132/51 75/142/51
f 75/142/52 97/132/52 76/143/52
f 76/143/53 97/132/53 77/144/53
f 77/144/54 97/132/54 78/145/54
f 78/145/55 97/132/55 79/146/55
f 79/146/56 97/132/56 80/147/56
f 80/147/57 97/132/57 81/148/57
f 81/148/58 97/132/58 82/149/58
f 82/149/59 97/132/59 83/150/59
f 83/150/60 97/132/60 84/151/60
f 84/151/61 97/132/61 85/152/61
f 85/152/62 97/132/62 86/153/62
f 86/153/63 97/132/63 87/154/63
f 87/154/64 97/132/64 88/155/64
f 88/155/65 97/132/65 89/156/65
f 89/156/66 97/132/66 90/157/66
f 90/157/67 97/132/67 91/158/67
f 91/158/68 97/132/68 92/159/68
f 92/159/69 97/132/69 93/160/69
f 93/160/70 97/132/70 94/161/70
f 94/161/71 97/132/71 95/162/71
f 72/163/72 80/164/72 88/165/72
f 95/162/73 97/132/73 96/166/73
f 96/166/74 97/132/74 65/131/74
f 96/167/72 65/168/72 66/169/72
f 66/169/72 67/170/72 68/171/72
f 68/171/72 69/172/72 70/173/72
f 70/173/72 71/174/72 68/171/72
f 71/174/72 72/163/72 68/171/72
f 72/163/72 73/175/72 74/176/72
f 74/176/72 75/177/72 72/163/72
f 75/177/72 76/178/72 72/163/72
f 76/178/72 77/179/72 80/164/72
f 77/179/72 78/180/72 80/164/72
f 78/180/75 79/181/75 80/164/75
f 80/164/72 81/182/72 82/183/72
f 82/183/72 83/184/72 84/185/72
f 84/185/72 85/186/72 86/187/72
f 86/187/72 87/188/72 88/165/72
f 88/165/72 89/189/72 90/190/72
f 90/190/72 91/191/72 92/192/72
f 92/192/72 93/193/72 96/167/72
f 93/193/72 94/194/72 96/167/72
f 94/194/72 95/195/72 96/167/72
f 96/167/72 66/169/72 68/171/72
f 80/164/72 82/183/72 88/165/72
f 82/183/72 84/185/72 88/165/72
f 84/185/72 86/187/72 88/165/72
f 88/165/72 90/190/72 96/167/72
f 90/190/72 92/192/72 96/167/72
f 96/167/72 68/171/72 72/163/72
f 72/163/72 76/178/72 80/164/72
f 96/167/72 72/163/72 88/165/72
o Cone.001
v -0.050000 0.550000 -0.000000
v -0.049039 0.550000 -0.009755
v -0.046194 0.550000 -0.019134
v -0.041573 0.550000 -0.027779
v -0.035355 0.550000 -0.035355
v -0.027779 0.550000 -0.041573
v -0.019134 0.550000 -0.046194
v -0.009755 0.550000 -0.049039
v -0.000000 0.550000 -0.050000
v 0.009755 0.550000 -0.049039
v 0.019134 0.550000 -0.046194
v 0.027779 0.550000 -0.041573
v 0.035355 0.550000 -0.035355
v 0.041573 0.550000 -0.027779
v 0.046194 0.550000 -0.019134
v 0.049039 0.550000 -0.009755
v 0.050000 0.550000 0.000000
v 0.049039 0.550000 0.009755
v 0.046194 0.550000 0.019134
v 0.041573 0.550000 0.027779
v 0.035355 0.550000 0.035355
v 0.027778 0.550000 0.041573
v 0.019134 0.550000 0.046194
v 0.009754 0.550000 0.049039
v -0.000000 0.550000 0.050000
v -0.009755 0.550000 0.049039
v -0.019134 0.550000 0.046194
v -0.027779 0.550000 0.041573
v -0.035355 0.550000 0.035355
v -0.041574 0.550000 0.027778
v -0.046194 0.550000 0.019134
v -0.049039 0.550000 0.009754
v 0.000000 0.650000 0.000000
vt 0.250000 0.490000
vt 0.250000 0.250000
vt 0.296822 0.485388
vt 0.341844 0.471731
vt 0.383337 0.449553
vt 0.419706 0.419706
vt 0.449553 0.383337
vt 0.471731 0.341844
vt 0.485388 0.296822
vt 0.490000 0.250000
vt 0.485388 0.203178
vt 0.471731 0.158156
vt 0.449553 0.116663
vt 0.419706 0.080294
vt 0.383337 0.050447
vt 0.341844 0.028269
vt 0.296822 0.014612
vt 0.250000 0.010000
vt 0.203178 0.014612
vt 0.158156 0.028269
vt 0.116663 0.050447
vt 0.080294 0.080294
vt 0.050447 0.116663
vt 0.028269 0.158156
vt 0.014611 0.203179
vt 0.010000 0.250000
vt 0.014612 0.296822
vt 0.028269 0.341844
vt 0.050447 0.383337
vt 0.080295 0.419706
vt 0.116663 0.449553
vt 0.158156 0.471731
vt 0.985388 0.296822
vt 0.796822 0.014612
vt 0.514611 0.203179
vt 0.203179 0.485389
vt 0.703179 0.485389
vt 0.750000 0.490000
vt 0.796822 0.485388
vt 0.841844 0.471731
vt 0.883337 0.449553
vt 0.919706 0.419706
vt 0.949553 0.383337
vt 0.971731 0.341844
vt 0.990000 0.250000
vt 0.985388 0.203178
vt 0.971731 0.158156
vt 0.949553 0.116663
vt 0.919706 0.080294
vt 0.883337 0.050447
vt 0.841844 0.028269
vt 0.750000 0.010000
vt 0.703178 0.014612
vt 0.658156 0.028269
vt 0.616663 0.050447
vt 0.580294 0.080294
vt 0.550447 0.116663
vt 0.528269 0.158156
vt 0.510000 0.250000
vt 0.514612 0.296822
vt 0.528269 0.341844
vt 0.550447 0.383337
vt 0.580295 0.419706
vt 0.616663 0.449553
vt 0.658156 0.471731
vn -0.8910 0.4455 -0.0878
vn -0.8567 0.4455 -0.2599
vn -0.7896 0.4455 -0.4220
vn -0.6921 0.4455 -0.5680
vn -0.5680 0.4455 -0.6921
vn -0.4220 0.4455 -0.7896
vn -0.2599 0.4455 -0.8567
vn -0.0878 0.4455 -0.8910
vn 0.0878 0.4455 -0.8910
vn 0.2599 0.4455 -0.8567
vn 0.4220 0.4455 -0.7896
vn 0.5680 0.4455 -0.6921
vn 0.6921 0.4455 -0.5680
vn 0.7896 0.4455 -0.4220
vn 0.8567 0.4455 -0.2599
vn 0.8910 0.4455 -0.0878
vn 0.8910 0.4455 0.0878
vn 0.8567 0.4455 0.2599
vn 0.7896 0.4455 0.4220
vn 0.6921 0.4455 0.5680
vn 0.5680 0.4455 0.6921
vn 0.4220 0.4455 0.7896
vn 0.2599 0.4455 0.8567
vn 0.0878 0.4455 0.8910
vn -0.0878 0.4455 0.8910
vn -0.2599 0.4455 0.8567
vn -0.4220 0.4455 0.7896
vn -0.5680 0.4455 0.6921
vn -0.6921 0.4455 0.5680
vn -0.7896 0.4455 0.4220
vn 0.0000 -1.0000 -0.0000
vn -0.8567 0.4455 0.2599
vn -0.8910 0.4455 0.0878
usemtl None
s off
f 98/196/76 130/197/76 99/198/76
f 99/198/77 130/197/77 100/199/77
f 100/199/78 130/197/78 101/200/78
f 101/200/79 130/197/79 102/201/79
f 102/201/80 130/197/80 103/202/80
f 103/202/81 130/197/81 104/203/81
f 104/203/82 130/197/82 105/204/82
f 105/204/83 130/197/83 106/205/83
f 106/205/84 130/197/84 107/206/84
f 107/206/85 130/197/85 108/207/85
f 108/207/86 130/197/86 109/208/86
f 109/208/87 130/197/87 110/209/87
f 110/209/88 130/197/88 111/210/88
f 111/210/89 130/197/89 112/211/89
f 112/211/90 130/197/90 113/212/90
f 113/212/91 130/197/91 114/213/91
f 114/213/92 130/197/92 115/214/92
f 115/214/93 130/197/93 116/215/93
f 116/215/94 130/197/94 117/216/94
f 117/216/95 130/197/95 118/217/95
f 118/217/96 130/197/96 119/218/96
f 119/218/97 130/197/97 120/219/97
f 120/219/98 130/197/98 121/220/98
f 121/220/99 130/197/99 122/221/99
f 122/221/100 130/197/100 123/222/100
f 123/222/101 130/197/101 124/223/101
f 124/223/102 130/197/102 125/224/102
f 125/224/103 130/197/103 126/225/103
f 126/225/104 130/197/104 127/226/104
f 127/226/105 130/197/105 128/227/105
f 105/228/106 113/229/106 121/230/106
f 128/227/107 130/197/107 129/231/107
f 129/231/108 130/197/108 98/196/108
f 129/232/106 98/233/106 99/234/106
f 99/234/106 100/235/106 101/236/106
f 101/236/106 102/237/106 103/238/106
f 103/238/106 104/239/106 101/236/106
f 104/239/106 105/228/106 101/236/106
f 105/228/106 106/240/106 107/241/106
f 107/241/106 108/242/106 105/228/106
f 108/242/106 109/243/106 105/228/106
f 109/243/106 110/244/106 113/229/106
f 110/244/106 111/245/106 113/229/106
f 111/245/106 112/246/106 113/229/106
f 113/229/106 114/247/106 115/248/106
f 115/248/106 116/249/106 117/250/106
f 117/250/106 118/251/106 119/252/106
f 119/252/106 120/253/106 121/230/106
f 121/230/106 122/254/106 123/255/106
f 123/255/106 124/256/106 125/257/106
f 125/257/106 126/258/106 129/232/106
f 126/258/106 127/259/106 129/232/106
f 127/259/106 128/260/106 129/232/106
f 129/232/106 99/234/106 101/236/106
f 113/229/106 115/248/106 121/230/106
f 115/248/106 117/250/106 121/230/106
f 117/250/106 119/252/106 121/230/106
f 121/230/106 123/255/106 129/232/106
f 123/255/106 125/257/106 129/232/106
f 129/232/106 101/236/106 105/228/106
f 105/228/106 109/243/106 113/229/106
f 129/232/106 105/228/106 121/230/106
